<svg width="48" height="48" viewBox="0 0 48 48" fill="none" xmlns="http://www.w3.org/2000/svg">
<g id="communication/bell-notification">
<g id="Vector">
<path d="M40 10C40 13.3137 37.3137 16 34 16C30.6863 16 28 13.3137 28 10C28 6.68629 30.6863 4 34 4C37.3137 4 40 6.68629 40 10Z" fill="#F3954F"/>
<path d="M24.8201 6.02758C24.5491 6.00929 24.2756 6 24 6C17.3726 6 12 11.3726 12 18V26.3564C12 27.4281 11.6828 28.4758 11.0883 29.3675L8.3359 33.4962C8.11688 33.8247 8 34.2107 8 34.6056V36H40V34.6056C40 34.2107 39.8831 33.8247 39.6641 33.4962L36.9117 29.3675C36.3172 28.4758 36 27.4281 36 26.3564V19.8C35.3538 19.9311 34.6849 20 34 20C28.4772 20 24 15.5228 24 10C24 8.58846 24.2925 7.24522 24.8201 6.02758Z" fill="#FFE8EC"/>
<path d="M24 43C26.2091 43 28 41.2091 28 39H20C20 41.2091 21.7909 43 24 43Z" fill="#FFE8EC"/>
</g>
</g>
</svg>
