<svg width="57" height="69" viewBox="0 0 57 69" fill="none" xmlns="http://www.w3.org/2000/svg">
<g id="Logo Design" clip-path="url(#clip0_1_2357)">
<path id="Vector" d="M35.855 46.5596H12.7555V44.3598H35.8703C46.0886 44.3598 54.6862 35.2964 54.9299 23.7894C55.1798 11.9359 46.6919 2.20323 36.2237 2.20323H2.8418C1.7633 2.1998 0.888916 1.21487 0.888916 0H36.2206C47.4962 0 56.6909 10.2234 56.8828 22.8731C57.0809 35.8969 47.417 46.5562 35.852 46.5562L35.855 46.5596Z" fill="#C4C4C4"/>
<path id="Vector_2" d="M35.855 68.0806H0.888916C0.888916 66.8657 1.7633 65.8808 2.8418 65.8808H35.8703C46.0886 65.8808 54.6862 56.8173 54.9299 45.3104C55.1798 33.4569 46.6919 23.7242 36.2237 23.7242H12.7555V21.5244H36.2206C47.4962 21.5244 56.6909 31.7478 56.8828 44.3976C57.0809 57.4213 47.417 68.0806 35.852 68.0806H35.855Z" fill="#C4C4C4"/>
<path id="Vector_3" d="M44.9858 34.0403C42.6795 31.6484 39.5963 30.1864 36.2206 30.1864H17.6667V37.8909H36.2206C39.6024 37.8909 42.3565 40.9898 42.3565 44.7991C42.3565 48.6085 39.6024 51.7108 36.2206 51.7108H7.72554V37.8909H14.7084V30.1864H0.888916V59.4119H36.2206C43.3741 59.4119 49.1931 52.8571 49.1931 44.7991C49.1931 40.5471 47.5723 36.7103 44.9858 34.0403Z" fill="white"/>
<path id="Vector_4" d="M49.187 22.8354C48.9768 14.8873 43.0024 8.66534 35.9464 8.66534H0.888916C0.888916 12.9208 3.95077 16.3664 7.72554 16.3664H36.2206C39.7974 16.3664 42.6703 19.8359 42.3261 23.9438C42.0275 27.5232 39.2337 30.1863 36.0409 30.1863H17.6667V37.8908H36.2206C39.5963 37.8908 42.6764 36.4323 44.9858 34.0403C47.6607 31.2777 49.3059 27.2693 49.187 22.8354ZM0.888916 37.8908H13.7335V30.1863H0.888916V37.8908Z" fill="white"/>
<path id="Vector_5" d="M12.7555 21.521L12.7555 46.5562H14.7084L14.7084 21.521H12.7555Z" fill="#C4C4C4"/>
<path id="Vector_6" d="M22.3737 30.128V34.0403H17.6666V27.235C18.4831 28.6386 19.0285 30.128 22.3737 30.128Z" fill="white"/>
<path id="Vector_7" d="M22.3737 34.0403V37.9492C19.0285 37.9492 18.4831 39.442 17.6666 40.8422V34.0403H22.3737Z" fill="white"/>
</g>
<defs>
<clipPath id="clip0_1_2357">
<rect width="56" height="68.0806" fill="white" transform="translate(0.888916)"/>
</clipPath>
</defs>
</svg>
