<svg width="20" height="20" viewBox="0 0 20 20" fill="none" xmlns="http://www.w3.org/2000/svg">
<g id="interface/trash">
<g id="Vector">
<path fill-rule="evenodd" clip-rule="evenodd" d="M5.8335 4.16666V4.99999H3.3335V6.66666H4.5835L5.4218 16.0557C5.53693 17.3451 6.61734 18.3333 7.91189 18.3333H12.0884C13.383 18.3333 14.4634 17.3451 14.5785 16.0557L15.4168 6.66666H16.6668V4.99999H14.1668V4.16666C14.1668 2.78594 13.0475 1.66666 11.6668 1.66666H8.3335C6.95278 1.66666 5.8335 2.78594 5.8335 4.16666ZM8.3335 3.33332C7.87326 3.33332 7.50016 3.70642 7.50016 4.16666V4.99999H12.5002V4.16666C12.5002 3.70642 12.1271 3.33332 11.6668 3.33332H8.3335Z" fill="#4E4E4E"/>
</g>
</g>
</svg>
