<svg width="19" height="19" viewBox="0 0 19 19" fill="none" xmlns="http://www.w3.org/2000/svg">
<path id="Vector" d="M9.5 1C10.4946 1 11.4484 1.39509 12.1517 2.09835C12.8549 2.80161 13.25 3.75544 13.25 4.75C13.25 5.74456 12.8549 6.69839 12.1517 7.40165C11.4484 8.10491 10.4946 8.5 9.5 8.5C8.50544 8.5 7.55161 8.10491 6.84835 7.40165C6.14509 6.69839 5.75 5.74456 5.75 4.75C5.75 3.75544 6.14509 2.80161 6.84835 2.09835C7.55161 1.39509 8.50544 1 9.5 1ZM9.5 12.875C12.0029 12.875 14.2184 13.3839 15.7711 14.1603C17.3833 14.9664 18 15.8954 18 16.625V18H1V16.625C1 15.8954 1.61668 14.9664 3.22893 14.1603C4.78163 13.3839 6.99708 12.875 9.5 12.875Z" fill="white" stroke="#78909C" stroke-width="2"/>
</svg>
