<svg width="20" height="19" viewBox="0 0 20 19" fill="none" xmlns="http://www.w3.org/2000/svg">
<path id="Vector" d="M16 0.333374H4V4.33337H16V0.333374ZM17 9.33337C16.7348 9.33337 16.4804 9.22802 16.2929 9.04048C16.1054 8.85294 16 8.59859 16 8.33337C16 8.06816 16.1054 7.8138 16.2929 7.62627C16.4804 7.43873 16.7348 7.33337 17 7.33337C17.2652 7.33337 17.5196 7.43873 17.7071 7.62627C17.8946 7.8138 18 8.06816 18 8.33337C18 8.59859 17.8946 8.85294 17.7071 9.04048C17.5196 9.22802 17.2652 9.33337 17 9.33337ZM14 16.3334H6V11.3334H14V16.3334ZM17 5.33337H3C2.20435 5.33337 1.44129 5.64944 0.87868 6.21205C0.316071 6.77466 0 7.53772 0 8.33337V14.3334H4V18.3334H16V14.3334H20V8.33337C20 7.53772 19.6839 6.77466 19.1213 6.21205C18.5587 5.64944 17.7956 5.33337 17 5.33337Z" fill="#78909C"/>
</svg>
